<svg xmlns="http://www.w3.org/2000/svg" viewBox="0 0 256 256">
  <defs>
    <linearGradient id="g" x1="0" x2="1">
      <stop offset="0" stop-color="#22d3ee"/>
      <stop offset="1" stop-color="#4f46e5"/>
    </linearGradient>
  </defs>
  <rect width="256" height="256" rx="16" fill="#0b0e13"/>
  <rect x="20" y="20" width="216" height="216" rx="10" fill="none" stroke="url(#g)" stroke-width="4"/>
  <g fill="#e6e8ee">
    <rect x="40" y="40" width="48" height="48" rx="4"/>
    <rect x="88" y="40" width="16" height="16" rx="2"/>
    <rect x="120" y="40" width="32" height="32" rx="4"/>
    <rect x="160" y="40" width="56" height="24" rx="3"/>

    <rect x="40" y="88" width="24" height="16" rx="2"/>
    <rect x="72" y="88" width="40" height="40" rx="4"/>
    <rect x="120" y="88" width="16" height="16" rx="2"/>
    <rect x="144" y="88" width="72" height="40" rx="4"/>

    <rect x="40" y="136" width="56" height="24" rx="3"/>
    <rect x="104" y="136" width="24" height="24" rx="3"/>
    <rect x="136" y="136" width="40" height="40" rx="4"/>
    <rect x="184" y="136" width="32" height="32" rx="4"/>

    <rect x="40" y="184" width="72" height="24" rx="3"/>
    <rect x="120" y="184" width="56" height="24" rx="3"/>
    <rect x="184" y="184" width="32" height="24" rx="3"/>
  </g>
</svg>
